<svg xmlns="http://www.w3.org/2000/svg" viewBox="0 0 134.31 134.28"><defs><style>.cls-1{fill:#b99c65;}.cls-1,.cls-2{fill-rule:evenodd;}.cls-2{fill:#293b65;}</style></defs><title>Asset 2</title><g id="Layer_2" data-name="Layer 2"><g id="_Layer_1" data-name="#Layer 1"><path class="cls-1" d="M27.34,28.36h-1l-1.58.86.39.82,1-.37v5.55h1.14V28.36Zm6.6,5V30.26a2,2,0,0,0-4,0v3.05a2,2,0,0,0,4,0Zm-1.15-3.13v3.19a.86.86,0,0,1-1.71,0V30.18a.86.86,0,0,1,1.71,0Zm5.5-1.82h-1l-1.58.86.38.82,1-.37v5.55h1.15V28.36Zm6.59,5V30.26a2,2,0,0,0-4,0v3.05a2,2,0,0,0,4,0Zm-1.14-3.13v3.19a.86.86,0,0,1-1.71,0V30.18a.86.86,0,0,1,1.71,0Zm5.49-1.82h-1l-1.58.86.39.82,1-.37v5.55h1.15V28.36Zm6.6,5V30.26a2,2,0,0,0-4,0v3.05a2,2,0,0,0,4,0Zm-1.15-3.13v3.19a.86.86,0,0,1-1.71,0V30.18a.86.86,0,0,1,1.71,0Zm5.5-1.82h-1l-1.58.86L58,30l1-.37v5.55h1.15V28.36Zm4.33,0h-1L62,29.22l.38.82,1-.37v5.55h1.15V28.36Zm4.33,0h-1l-1.58.86.38.82,1-.37v5.55h1.15V28.36Zm6.59,5V30.26a2,2,0,0,0-4,0v3.05a2,2,0,0,0,4,0Zm-1.15-3.13v3.19a.85.85,0,0,1-1.7,0V30.18a.85.85,0,0,1,1.7,0Zm5.5-1.82h-1l-1.58.86.39.82,1-.37v5.55h1.15V28.36Zm6.6,5V30.26a2,2,0,0,0-4,0v3.05a2,2,0,0,0,4,0Zm-1.15-3.13v3.19a.86.86,0,0,1-1.71,0V30.18a.86.86,0,0,1,1.71,0ZM93,33.31V30.26a2,2,0,0,0-4,0v3.05a2,2,0,0,0,4,0Zm-1.15-3.13v3.19a.85.85,0,0,1-1.7,0V30.18a.85.85,0,0,1,1.7,0Zm5.5-1.82h-1l-1.58.86.38.82,1-.37v5.55h1.15V28.36Zm6.59,5V30.26a2,2,0,0,0-4,0v3.05a2,2,0,0,0,4,0Zm-1.14-3.13v3.19a.86.86,0,0,1-1.71,0V30.18a.86.86,0,0,1,1.71,0Zm5.49-1.82h-1l-1.57.86.38.82,1-.37v5.55h1.14V28.36ZM29.61,48.75v-3a2,2,0,0,0-4,0v3a2,2,0,0,0,4,0Zm-1.15-3.14v3.2a.86.86,0,0,1-1.71,0v-3.2a.86.86,0,0,1,1.71,0ZM34,43.8H33l-1.58.85.38.82,1-.37v5.56H34V43.8Zm4.33,0h-1l-1.58.85.38.82,1-.37v5.56h1.15V43.8Zm4.84,0a1.92,1.92,0,0,0-2.25,1.93v3a2,2,0,0,0,3.3,1.52L44,46.19l-.26-.73a.77.77,0,0,1,0,.15v3.2a.86.86,0,0,1-1.71,0v-3.2a.86.86,0,0,1,1.59-.44l-.49-1.4Zm12.51,1a2.06,2.06,0,0,0-2.51-1l2.51,1Zm4.54-1h-1l-1.58.85.38.82,1-.37v1l1.15.44V43.8Zm4.33,0h-1L62,44.65l.38.82,1-.37v3.54l1.15.83V43.8Zm4.33,0h-1l-1.58.85.38.82,1-.37v5.56h.53l.62-.28V43.8Zm4.33,0h-1l-1.58.85.38.82,1-.37v3.81l1.15-.53V43.8Zm6.57,1.56c-.34-2.25-4-2.14-4,.34v1.49l1.15-.53v-1a.86.86,0,0,1,1.71,0v.26l1.12-.51Zm10.94,5.3h0v-.22l0,.19v0Zm6.64-1.91v-3a2,2,0,0,0-4,0v3a2,2,0,0,0,4,0Zm-1.15-3.14v3.2a.85.85,0,0,1-1.7,0v-3.2a.85.85,0,0,1,1.7,0Zm5.5-1.81h-1l-1.58.85.38.82,1-.37v5.56h1.15V43.8Zm6.59,5v-3a2,2,0,0,0-4,0v3a2,2,0,0,0,4,0Zm-1.14-3.14v3.2a.86.86,0,0,1-1.71,0v-3.2a.86.86,0,0,1,1.71,0ZM27.34,59.23h-1l-1.58.86.39.82,1-.37v5.55h1.14V59.23Zm6.6,5v-3a2,2,0,0,0-4,0v3a2,2,0,0,0,4,0Zm-1.15-3.13v3.19a.86.86,0,0,1-1.71,0V61.05a.86.86,0,0,1,1.71,0Zm5.5-1.82h-1l-1.58.86.38.82,1-.37v5.55h1.15V59.23Zm4.33,0h-1l-1.58.86.38.82,1-.37v5.55h.77L42.45,65l.17-.79v-5Zm50.37,5v-3a2,2,0,0,0-2.45-1.91v.9l0,.18a.85.85,0,0,1,1.27.74v3.19a.81.81,0,0,1-.34.69L91.72,66A1.84,1.84,0,0,0,93,64.18Zm4.35-5h-1l-1.58.86.38.82,1-.37v5.55h1.15V59.23Zm4.33,0h-1l-1.58.86.38.82,1-.37v5.55h1.15V59.23Zm6.59,5v-3a2,2,0,0,0-4,0v3a2,2,0,0,0,4,0Zm-1.14-3.13v3.19a.86.86,0,0,1-1.71,0V61.05a.86.86,0,0,1,1.71,0ZM27.34,74.67h-1l-1.58.85.39.83,1-.38v5.56h1.14V74.67Zm6.6,5V76.57a2,2,0,0,0-4,0v3.05a2,2,0,0,0,4,0Zm-1.15-3.14v3.2a.86.86,0,0,1-1.71,0v-3.2a.86.86,0,0,1,1.71,0Zm5.5-1.81h-1l-1.58.85.38.83,1-.38v5.56h1.15V74.67Zm2.15.65-.37.2.25.55.12-.75Zm56.88,4.3V76.57a2,2,0,0,0-3.68-1.11l.83,4.11V76.48a.85.85,0,0,1,1.7,0v3.2a.86.86,0,0,1-1.59.44l.28,1.4a2,2,0,0,0,2.46-1.9Zm4.35-5h-1l-1.58.85.38.83,1-.38v5.56h1.15V74.67Zm6.59,5V76.57a2,2,0,0,0-4,0v3.05a2,2,0,0,0,4,0Zm-1.14-3.14v3.2a.86.86,0,0,1-1.71,0v-3.2a.86.86,0,0,1,1.71,0ZM27.34,90.11h-1L24.79,91l.39.82,1-.37V97h1.14V90.11Zm6.6,4.94V92a2,2,0,0,0-4,0v3a2,2,0,0,0,4,0Zm-1.15-3.13v3.19a.86.86,0,0,1-1.71,0V91.92a.86.86,0,0,1,1.71,0Zm5.5-1.81h-1L35.74,91l.38.82,1-.37V97h1.15V90.11Zm57,4.94V92a1.83,1.83,0,0,0-.66-1.49l-.48,2v2.58a.81.81,0,0,1-.83.84l-.25,1a1.92,1.92,0,0,0,2.22-1.94Zm4.35-4.94h-1L97.08,91l.38.82,1-.37V97h1.14V90.11Zm6.6,4.94V92a2,2,0,0,0-4,0v3a2,2,0,0,0,4,0Zm-1.15-3.13v3.19a.85.85,0,0,1-1.7,0V91.92a.85.85,0,0,1,1.7,0ZM38.29,105.54h-1l-1.58.85.38.83,1-.38v1.71l1.15-.2v-2.81Zm4.33,0h-1l-1.58.85.38.83,1-.38v1l1.15-.17v-2.12Zm4.55,0a1.88,1.88,0,0,0-2,1.8l1.16-.15a.83.83,0,0,1,1-.62l-.18-1Zm41.48,1.74a1.85,1.85,0,0,0-1.52-1.7l-.17,1a.75.75,0,0,1,.52.53l1.17.14Zm4.36-1.7H92l-1.58.85.38.83,1-.38v.85l1.15.17v-2.32ZM99.6,109v-1.55a2,2,0,0,0-4,0v.84l1.14.19v-1.12a.86.86,0,0,1,1.71,0v1.43l1.14.21Zm-46,12h-1l-1.58.85.39.82,1-.37v2.62l1.14.64V121Zm4.33,0h-1l-1.58.85.39.82,1-.37v5l.92.52h.22V121Zm6.6,4.94v-3a2,2,0,0,0-4,0v3a2,2,0,0,0,4,0Zm-1.15-3.13V126a.86.86,0,0,1-1.71,0v-3.19a.86.86,0,0,1,1.71,0Zm7.76,3.13v-3a2,2,0,0,0-4,0v3a2,2,0,0,0,4,0ZM70,122.79V126a.85.85,0,0,1-1.7,0v-3.19a.85.85,0,0,1,1.7,0Zm5.5-1.81h-1l-1.58.85.39.82,1-.37v5.56h1.15V121Zm4.33,0h-1l-1.58.85.39.82,1-.37v5.56h1.15V121Zm4.33,0h-1l-1.58.85.39.82,1-.37V126l1.14-1Z"/><path class="cls-1" d="M128.17,53.79c-2.46-4.59-4.41-10.71-9.76-16.74,4.89,2.33,10.92,9.56,9.76,16.74Z"/><path class="cls-1" d="M123.39,52.66A11.25,11.25,0,0,0,125,54.49c1.06.92,2,1.5,2.91,2.41a7,7,0,0,1,1.48,2.42,8.74,8.74,0,0,1,.53,2.15,9.58,9.58,0,0,1-.68,4.5,12.69,12.69,0,0,0-.75-2.12A11.48,11.48,0,0,0,127,61.34c-.44-.55-.83-1.05-1.17-1.55-1.5-2.21-1.87-4.58-2.39-7.13Z"/><path class="cls-1" d="M129.27,66c.85-1.8.84-5.56.55-7.11a15.28,15.28,0,0,1-.15-3.39,24.62,24.62,0,0,1,.9-5.87,32.92,32.92,0,0,1,1.81,3.49c1.19,3,1.36,5.75-.31,8.59-.63,1.08-1.82,3.52-2.8,4.29Z"/><path class="cls-1" d="M125.34,64.56a11.87,11.87,0,0,0,1.25,2.12c.87,1.11,1.72,1.87,2.39,2.93a6.94,6.94,0,0,1,1,2.66,8.56,8.56,0,0,1,.1,2.22,9.55,9.55,0,0,1-1.55,4.28,12.49,12.49,0,0,0-.31-2.23,11.46,11.46,0,0,0-1-2.76c-.33-.63-.61-1.19-.85-1.76-1-2.45-.94-4.85-1-7.46Z"/><path class="cls-1" d="M128.5,78.82c1.19-1.61,1.91-5.29,1.93-6.87a15.74,15.74,0,0,1,.52-3.36A24.72,24.72,0,0,1,133,63a35.86,35.86,0,0,1,1.09,3.78c.57,3.19.22,5.9-2,8.37-.83.93-2.47,3.09-3.59,3.66Z"/><path class="cls-1" d="M124.83,75.33a13.13,13.13,0,0,0,.66,2.65c.57,1.46,1.23,2.53,1.61,3.88a7.43,7.43,0,0,1,.2,3.13,9.17,9.17,0,0,1-.59,2.4,10.54,10.54,0,0,1-3,4.06,14.32,14.32,0,0,0,.38-2.47,12.89,12.89,0,0,0-.25-3.27c-.15-.77-.27-1.46-.34-2.13-.33-3,.53-5.47,1.34-8.25Z"/><path class="cls-1" d="M123.68,91.5c1.77-1.33,3.71-5,4.23-6.69a16.55,16.55,0,0,1,1.61-3.41,27.62,27.62,0,0,1,3.93-5.31,38,38,0,0,1,0,4.37c-.4,3.58-1.64,6.35-4.75,8.28-1.18.73-3.61,2.51-5,2.76Z"/><path class="cls-1" d="M121.59,86.77a12.84,12.84,0,0,0,.1,2.78c.26,1.59.69,2.81.78,4.23A7.66,7.66,0,0,1,122,97a9.79,9.79,0,0,1-1.1,2.27,10.85,10.85,0,0,1-3.88,3.43,13.64,13.64,0,0,0,.9-2.4,13.14,13.14,0,0,0,.46-3.33c0-.8,0-1.52.11-2.21.3-3,1.7-5.36,3.1-8Z"/><path class="cls-1" d="M117,102.71c2.05-1,4.78-4.24,5.66-5.8A16.69,16.69,0,0,1,125,93.84a27.85,27.85,0,0,1,5.05-4.47,37.79,37.79,0,0,1-1,4.36c-1.16,3.5-3,6-6.52,7.28-1.33.48-4.15,1.75-5.57,1.7Z"/><path class="cls-1" d="M116.66,96.83a13.85,13.85,0,0,0-.8,2.91c-.24,1.71-.19,3.11-.55,4.6a8.29,8.29,0,0,1-1.51,3.13,10.52,10.52,0,0,1-1.86,2,11.74,11.74,0,0,1-5.1,2.29,15.88,15.88,0,0,0,1.7-2.18,14.52,14.52,0,0,0,1.54-3.28c.27-.82.53-1.55.82-2.24,1.28-3,3.47-5,5.76-7.21Z"/><path class="cls-1" d="M106.79,111.77c2.42-.32,6.29-2.82,7.7-4.15a18.11,18.11,0,0,1,3.4-2.41,30.54,30.54,0,0,1,6.65-3,42.85,42.85,0,0,1-2.41,4.19c-2.32,3.23-5,5.23-9,5.4-1.53.06-4.84.46-6.29,0Z"/><path class="cls-1" d="M6.14,53.79C8.6,49.2,10.55,43.08,15.9,37.05,11,39.38,5,46.61,6.14,53.79Z"/><path class="cls-1" d="M10.92,52.66a11.25,11.25,0,0,1-1.64,1.83c-1.06.92-2,1.5-2.91,2.41A6.85,6.85,0,0,0,4.9,59.32a8.36,8.36,0,0,0-.54,2.15A9.7,9.7,0,0,0,5,66a12.69,12.69,0,0,1,.75-2.12,11.48,11.48,0,0,1,1.57-2.51c.44-.55.83-1.05,1.17-1.55,1.5-2.21,1.87-4.58,2.39-7.13Z"/><path class="cls-1" d="M5,66c-.84-1.8-.84-5.56-.55-7.11a14.7,14.7,0,0,0,.15-3.39,24.62,24.62,0,0,0-.9-5.87,32.92,32.92,0,0,0-1.81,3.49c-1.18,3-1.36,5.75.31,8.59C2.87,62.81,4.06,65.25,5,66Z"/><path class="cls-1" d="M9,64.56a11.87,11.87,0,0,1-1.25,2.12C6.85,67.79,6,68.55,5.33,69.61a6.76,6.76,0,0,0-1,2.66,8.17,8.17,0,0,0-.11,2.22A9.55,9.55,0,0,0,5.8,78.77a12.49,12.49,0,0,1,.31-2.23,11.46,11.46,0,0,1,1-2.76c.33-.63.61-1.19.85-1.76,1-2.45.94-4.85,1-7.46Z"/><path class="cls-1" d="M5.81,78.82C4.62,77.21,3.9,73.53,3.88,72a15.74,15.74,0,0,0-.52-3.36,24.72,24.72,0,0,0-2-5.58A33.72,33.72,0,0,0,.25,66.79c-.58,3.19-.22,5.9,2,8.37.83.93,2.47,3.09,3.59,3.66Z"/><path class="cls-1" d="M9.48,75.33A13.13,13.13,0,0,1,8.82,78c-.57,1.46-1.23,2.53-1.61,3.88A7.43,7.43,0,0,0,7,85a9.58,9.58,0,0,0,.59,2.4,10.54,10.54,0,0,0,3,4.06A14.32,14.32,0,0,1,10.23,89a12.89,12.89,0,0,1,.25-3.27c.15-.77.27-1.46.34-2.13.33-3-.53-5.47-1.34-8.25Z"/><path class="cls-1" d="M10.63,91.5c-1.77-1.33-3.71-5-4.23-6.69A16.55,16.55,0,0,0,4.79,81.4,27.62,27.62,0,0,0,.86,76.09a38,38,0,0,0,0,4.37c.4,3.58,1.64,6.35,4.75,8.28,1.18.73,3.61,2.51,5,2.76Z"/><path class="cls-1" d="M12.72,86.77a12.84,12.84,0,0,1-.1,2.78c-.26,1.59-.69,2.81-.78,4.23A7.83,7.83,0,0,0,12.31,97a9.79,9.79,0,0,0,1.1,2.27,10.85,10.85,0,0,0,3.88,3.43,13.64,13.64,0,0,1-.9-2.4,13.14,13.14,0,0,1-.46-3.33c0-.8,0-1.52-.11-2.21-.29-3-1.7-5.36-3.1-8Z"/><path class="cls-1" d="M17.32,102.71c-2.05-1-4.78-4.24-5.66-5.8a17.08,17.08,0,0,0-2.34-3.07,28.23,28.23,0,0,0-5.06-4.47,37.79,37.79,0,0,0,1,4.36c1.16,3.5,3,6,6.52,7.28,1.33.48,4.15,1.75,5.57,1.7Z"/><path class="cls-1" d="M17.66,96.83a14.4,14.4,0,0,1,.79,2.91c.24,1.71.19,3.11.55,4.6a8.45,8.45,0,0,0,1.51,3.13,10.85,10.85,0,0,0,1.86,2,11.74,11.74,0,0,0,5.1,2.29,15.88,15.88,0,0,1-1.7-2.18,14.52,14.52,0,0,1-1.54-3.28c-.27-.82-.53-1.55-.82-2.24-1.28-3-3.47-5-5.75-7.21Z"/><path class="cls-1" d="M27.52,111.77c-2.42-.32-6.29-2.82-7.69-4.15a18.52,18.52,0,0,0-3.41-2.41,30.69,30.69,0,0,0-6.64-3,40.68,40.68,0,0,0,2.4,4.19c2.32,3.23,5,5.23,9.05,5.4,1.53.06,4.84.46,6.29,0Z"/><path class="cls-2" d="M19.7,29.58v42A64.71,64.71,0,0,0,32,109.53c1.36-.28,2.73-.54,4.1-.79-.12-.14-.23-.29-.34-.44A61,61,0,0,1,23.47,71.61V32.26l.46-.15a136.21,136.21,0,0,1,20.39-5.06,138.89,138.89,0,0,1,45.67,0,136.21,136.21,0,0,1,20.39,5.06l.46.15V71.61A61,61,0,0,1,98.58,108.3l-.33.44c1.36.25,2.73.51,4.09.79a64.71,64.71,0,0,0,12.27-37.92v-42l-1.27-.44a140.3,140.3,0,0,0-22.73-5.8,142,142,0,0,0-46.91,0A140.3,140.3,0,0,0,21,29.14l-1.27.44Zm23.37,91.91a65.52,65.52,0,0,0,23.56,12.64l.53.15.52-.15a65.52,65.52,0,0,0,23.56-12.64c-1.72-.27-3.43-.51-5.15-.72a61.31,61.31,0,0,1-18.74,9.52l-.19.06-.2-.06a61.12,61.12,0,0,1-18.74-9.53C46.5,121,44.79,121.22,43.07,121.49Z"/><path class="cls-2" d="M41.07,121.8l.41,2.83-17,3.33,2.32-6.31-4.2-4.73,5.55-.93,1.78,7.9,1.27-.26C34.48,123,37.77,122.34,41.07,121.8Z"/><path class="cls-2" d="M93.24,121.8l-.41,2.83,17,3.33-2.33-6.31,4.2-4.73-5.55-.93-1.78,7.9-1.27-.26C99.83,123,96.54,122.34,93.24,121.8Z"/><path class="cls-2" d="M25,9l-2.62.75v4.89L25,12.53V9Zm0,6.8L22.33,17.9v3.83L25,21V15.79Zm2.62-.46v4.91a4,4,0,0,1-.52,2.33A4,4,0,0,1,25,23.71l-5.24,1.48V7.76L25,6.27C26,6,26.7,6,27.05,6.22s.52.94.52,2v3.81a3.1,3.1,0,0,1-.73,2.17c.48,0,.72.39.73,1.1ZM37,3.19V17.9a3.79,3.79,0,0,1-.53,2.3,3.83,3.83,0,0,1-2.13,1l-2.65.61c-1.07.25-1.77.23-2.13-.05s-.53-1-.53-2.05V5l2.66-.61V19.14l2.65-.61V3.8L37,3.19Zm1.49-.32,2.68-.48V19.83l-2.68.48V2.87ZM42.65,2l2.7-.35V16.37l3.78-.48v2.72l-6.48.82V2ZM56.08.46a3,3,0,0,1,2.16.37A3,3,0,0,1,58.79,3V15a3.35,3.35,0,0,1-.54,2.22,3.33,3.33,0,0,1-2.17.71l-5.44.43V.87L56.08.46Zm0,2.74-2.72.21v12l2.72-.22V3.2Zm4.24-.33A3.19,3.19,0,0,1,60.87.68,3.23,3.23,0,0,1,63,.06L65.77,0a3.22,3.22,0,0,1,2.17.48,3.09,3.09,0,0,1,.55,2.19V3.75L65.77,5.18V2.73L63,2.8V8l5.45-2.86v9.53a3.19,3.19,0,0,1-.55,2.19,3.24,3.24,0,0,1-2.17.61L63,17.5A3.11,3.11,0,0,1,60.87,17a3,3,0,0,1-.55-2.18V13.76L63,12.32v2.46l2.73-.07V9.28l-5.45,2.85V2.87ZM75.47,13l2.72-1.3v3.27a3.14,3.14,0,0,1-.54,2.17,3.12,3.12,0,0,1-2.18.49l-2.73-.07a3.26,3.26,0,0,1-2.18-.6A3.21,3.21,0,0,1,70,14.73v-12A3.08,3.08,0,0,1,70.57.56a3.15,3.15,0,0,1,2.17-.5l2.73.08a3.23,3.23,0,0,1,2.17.59,3.17,3.17,0,0,1,.55,2.21V4l-2.72,1.3V2.86L72.74,2.8v12l2.73.07V13Zm7-1.43v6.54l-2.7-.34V.28l2.7.34V8.25l2.7-1V1l2.7.35V18.75l-2.7-.35V10.5l-2.7,1Zm12.3-9.13a3.69,3.69,0,0,1,2.14.92,3.63,3.63,0,0,1,.54,2.3v12c0,1.09-.18,1.78-.54,2.08s-1.07.35-2.14.16L92,19.35a3.66,3.66,0,0,1-2.14-.92,3.61,3.61,0,0,1-.54-2.27v-12c0-1.08.18-1.78.55-2.08A2.76,2.76,0,0,1,92,1.91l2.69.48Zm0,14.73v-12L92,4.64v12l2.69.48Zm9.49-12.71a3.76,3.76,0,0,1,2.11,1,3.74,3.74,0,0,1,.54,2.32v12c0,1.09-.18,1.77-.53,2.06s-1.06.3-2.12.05l-2.66-.61a3.76,3.76,0,0,1-2.12-1,3.69,3.69,0,0,1-.53-2.29v-12c0-1.08.17-1.76.53-2.05s1.06-.31,2.12-.07l2.66.62Zm0,14.73v-12l-2.66-.62v12l2.66.61Zm4.1-13.62,2.62.74V21l3.66,1v2.73L108.32,23Z"/><path class="cls-2" d="M78.08,102.06h0a1.35,1.35,0,0,1,1.1,1.55l-.65,3.8A1.35,1.35,0,0,1,77,108.52h0A1.36,1.36,0,0,1,75.87,107l.65-3.8A1.34,1.34,0,0,1,78.08,102.06Z"/><path class="cls-2" d="M81.66,102.67h0a1.35,1.35,0,0,1,1.11,1.55l-.65,3.8a1.35,1.35,0,0,1-1.56,1.11h0a1.36,1.36,0,0,1-1.1-1.56l.65-3.8A1.34,1.34,0,0,1,81.66,102.67Z"/><path class="cls-2" d="M85.25,103.28h0a1.36,1.36,0,0,1,1.11,1.56l-.65,3.8a1.36,1.36,0,0,1-1.56,1.1h0a1.35,1.35,0,0,1-1.1-1.56l.65-3.8A1.34,1.34,0,0,1,85.25,103.28Z"/><path class="cls-2" d="M67.16,48.83c2.44-2.4,6.62-3.65,9.68-4.67,5.47-1.82,11.87-3.21,15.32-8.49l.49-.74,3.52,2-.4.79A35.16,35.16,0,0,0,91.7,55c.12,5.26,1.32,10.28,2.56,15.35s2.51,10.25,2.51,15.54a29.52,29.52,0,0,1-8.67,20.94l-.3.3-.92-.12.35-2a2.25,2.25,0,0,0-.34-1.59A26.26,26.26,0,0,0,93.53,85.9c0-4.93-1.19-9.79-2.41-14.77-2.15-8.81-4.4-18-.75-28.9C86.57,45.12,82,46.65,77.86,48c-8.42,2.8-9.12,4.15-10.7,7.13-1.59-3-2.29-4.33-10.71-7.13-4.11-1.36-8.71-2.89-12.51-5.78,3.65,10.9,1.41,20.09-.75,28.9C42,76.11,40.78,81,40.78,85.9a26.26,26.26,0,0,0,6.64,17.49v0l0,0v0h0v0l0,0h0v.06h0v0h0v.07h0v0h0v.06h0v0h0v0h0v0h0V104h0v0h0v0h0v0h0v.11h0v0h0v.05h0v0h0v0h0v0h0v0h0v0h0v0h0v.06h0v0h0v.05h0v.05h0v0l.35,2-.91.12-.31-.3A29.52,29.52,0,0,1,37.54,85.9c0-5.29,1.26-10.43,2.51-15.54S42.49,60.27,42.61,55a35.16,35.16,0,0,0-4.07-17.25l-.4-.79,3.52-2,.49.74C45.6,41,52,42.34,57.47,44.16,60.53,45.18,64.72,46.43,67.16,48.83Z"/><path class="cls-2" d="M57.24,52.4a12.66,12.66,0,0,1,6.59,1.85,13.11,13.11,0,0,1,3.33,2.92,12.78,12.78,0,0,1,3.33-2.92,12.7,12.7,0,1,1,0,21.72,12.78,12.78,0,0,1-3.33-2.92A13.11,13.11,0,0,1,63.83,76,12.7,12.7,0,1,1,57.24,52.4Zm0,3.08a9.63,9.63,0,1,0,5,17.86,9.69,9.69,0,0,0,3.55-3.8l1.37-2.63,1.36,2.63a9.69,9.69,0,0,0,3.55,3.8,9.63,9.63,0,1,0,5-17.86c-5.57,0-7.63,3.44-9.91,7.83C64.87,58.92,62.81,55.48,57.24,55.48Z"/><path class="cls-2" d="M67.16,66.86a2.59,2.59,0,0,1,2.58,2.58c0,5.4.36,7.17-2.58,9.34-3-2.17-2.59-3.94-2.59-9.34A2.59,2.59,0,0,1,67.16,66.86Z"/><path class="cls-2" d="M59.7,83.51a4.64,4.64,0,0,1-8.91,0,7.61,7.61,0,0,0,8.91,0Z"/><path class="cls-2" d="M63.27,92.85a4.64,4.64,0,0,1-8.91,0,7.61,7.61,0,0,0,8.91,0Z"/><path class="cls-2" d="M83.52,83.51a4.64,4.64,0,0,1-8.91,0,7.61,7.61,0,0,0,8.91,0Z"/><path class="cls-2" d="M80,92.85a4.64,4.64,0,0,1-8.91,0,7.61,7.61,0,0,0,8.91,0Z"/><path class="cls-2" d="M71.61,87.88a4.65,4.65,0,0,1-8.91,0,7.61,7.61,0,0,0,8.91,0Z"/><path class="cls-2" d="M93.15,73.18,82.42,102a1.82,1.82,0,0,0-.61-.2,2.21,2.21,0,0,0-2,.63l0-.07,12-32.23Z"/><path class="cls-2" d="M42.44,70l12,32.33h0l0,.06a2.2,2.2,0,0,0-2-.63h-.61l-11-29.6Z"/><path class="cls-2" d="M83.06,102.47,91.1,89l-6,13.43a2.19,2.19,0,0,0-1.63.66A2.22,2.22,0,0,0,83.06,102.47Z"/><polygon class="cls-2" points="51.25 102.47 43.22 88.95 49.23 102.38 49.25 102.38 49.26 102.38 49.29 102.38 49.29 102.38 49.31 102.38 49.32 102.38 49.34 102.38 49.35 102.38 49.37 102.38 49.39 102.38 49.4 102.38 49.42 102.38 49.43 102.38 49.46 102.39 49.46 102.39 49.49 102.39 49.49 102.39 49.52 102.39 49.52 102.39 49.55 102.39 49.56 102.39 49.57 102.4 49.59 102.4 49.6 102.4 49.62 102.41 49.63 102.41 49.66 102.41 49.66 102.41 49.69 102.42 49.69 102.42 49.72 102.42 49.72 102.42 49.74 102.43 49.75 102.43 49.77 102.43 49.79 102.44 49.8 102.44 49.82 102.44 49.83 102.45 49.85 102.45 49.85 102.45 49.88 102.46 49.88 102.46 49.91 102.47 49.91 102.47 49.93 102.48 49.95 102.48 49.96 102.48 49.98 102.49 49.99 102.49 50.01 102.5 50.02 102.5 50.04 102.51 50.04 102.51 50.07 102.52 50.07 102.52 50.09 102.53 50.1 102.54 50.12 102.54 50.13 102.55 50.15 102.55 50.16 102.56 50.17 102.56 50.19 102.58 50.2 102.58 50.22 102.59 50.22 102.59 50.25 102.6 50.25 102.6 50.27 102.61 50.28 102.62 50.3 102.63 50.31 102.63 50.32 102.64 50.34 102.65 50.35 102.65 50.37 102.66 50.37 102.67 50.4 102.68 50.4 102.68 50.42 102.69 50.42 102.7 50.45 102.71 50.47 102.72 50.48 102.73 50.49 102.74 50.51 102.75 50.52 102.75 50.53 102.77 50.54 102.77 50.56 102.78 50.56 102.79 50.59 102.8 50.59 102.8 50.61 102.82 50.62 102.82 50.63 102.83 50.64 102.84 50.65 102.85 50.67 102.86 50.68 102.87 50.69 102.88 50.7 102.89 50.72 102.91 50.72 102.91 50.74 102.92 50.74 102.93 50.76 102.94 50.77 102.95 50.78 102.96 50.79 102.97 50.8 102.98 50.82 102.99 50.82 103 50.84 103.02 50.84 103.02 50.86 103.04 50.87 103.03 50.87 103.02 50.88 103.01 50.88 103.01 50.88 103 50.89 102.99 50.89 102.98 50.89 102.98 50.9 102.97 50.9 102.96 50.91 102.95 50.91 102.95 50.91 102.94 50.92 102.93 50.92 102.92 50.92 102.92 50.93 102.91 50.93 102.91 50.94 102.89 50.94 102.89 50.94 102.89 50.95 102.88 50.95 102.87 50.96 102.86 50.96 102.86 50.97 102.85 50.97 102.85 50.98 102.83 50.98 102.82 50.99 102.81 50.99 102.81 50.99 102.8 51 102.79 51.01 102.79 51.01 102.78 51.01 102.78 51.02 102.77 51.02 102.76 51.03 102.75 51.03 102.75 51.03 102.74 51.04 102.73 51.05 102.73 51.05 102.72 51.05 102.71 51.06 102.71 51.06 102.7 51.07 102.7 51.07 102.69 51.08 102.68 51.08 102.67 51.09 102.67 51.09 102.66 51.1 102.65 51.1 102.65 51.1 102.64 51.11 102.64 51.12 102.63 51.12 102.62 51.12 102.62 51.13 102.61 51.14 102.6 51.14 102.59 51.14 102.59 51.15 102.59 51.16 102.58 51.16 102.57 51.16 102.57 51.17 102.56 51.18 102.55 51.19 102.54 51.2 102.53 51.21 102.52 51.21 102.52 51.21 102.51 51.22 102.5 51.23 102.5 51.23 102.5 51.23 102.49 51.24 102.48 51.25 102.47"/><path class="cls-2" d="M77.07,62.27a2.84,2.84,0,1,1-2.84,2.84A2.84,2.84,0,0,1,77.07,62.27Z"/><path class="cls-2" d="M57.24,62.27a2.84,2.84,0,1,1-2.84,2.84A2.84,2.84,0,0,1,57.24,62.27Z"/><path class="cls-2" d="M70.65,101a4.63,4.63,0,0,1-8.9,0,7.6,7.6,0,0,0,8.9,0Z"/><path class="cls-2" d="M56.24,102.06h0a1.35,1.35,0,0,0-1.11,1.55l.65,3.8a1.36,1.36,0,0,0,1.56,1.11h0a1.36,1.36,0,0,0,1.1-1.56l-.65-3.8A1.34,1.34,0,0,0,56.24,102.06Z"/><path class="cls-2" d="M52.65,102.67h0a1.35,1.35,0,0,0-1.11,1.55l.65,3.8a1.36,1.36,0,0,0,1.56,1.11h0a1.35,1.35,0,0,0,1.1-1.56l-.65-3.8A1.34,1.34,0,0,0,52.65,102.67Z"/><path class="cls-2" d="M49.06,103.28h0A1.36,1.36,0,0,0,48,104.84l.65,3.8a1.36,1.36,0,0,0,1.56,1.1h0a1.35,1.35,0,0,0,1.1-1.56l-.65-3.8A1.34,1.34,0,0,0,49.06,103.28Z"/><path class="cls-2" d="M30.92,122.34c27.08-5.53,45.39-5.53,72.47,0l2.42-10.71a190.71,190.71,0,0,0-19.15-3.31l-.08.46a2.23,2.23,0,0,1-4.21.59,2.27,2.27,0,0,1-2,.63,2.25,2.25,0,0,1-1.64-1.24,2.27,2.27,0,0,1-2,.63,2.24,2.24,0,0,1-1.85-2c-5.22-.25-10.42-.25-15.65,0a2.24,2.24,0,0,1-1.85,2,2.27,2.27,0,0,1-1.95-.63A2.25,2.25,0,0,1,53.9,110a2.28,2.28,0,0,1-2-.63,2.23,2.23,0,0,1-4.21-.59l-.08-.46a190.71,190.71,0,0,0-19.15,3.31l2.42,10.71Zm1.66-8.46.8-.16,1.36,3.48,0-3.75.69-.14,1.45,3.46,0-3.74.67-.13-.07,5-.72.14-1.45-3.38-.05,3.67-.73.15-2-4.62Zm5.81-1.14,2.77-.46.1.64-2,.33.24,1.38,1.54-.26.11.65-1.55.26.26,1.51,2-.33.11.65-2.8.47-.81-4.84Zm5-.81.8-.11L44.8,116l1.71-.24.1.68-2.52.35-.68-4.85Zm3.3-.45,2.79-.32.07.64-2,.23.16,1.39,1.55-.18.08.65-1.56.18L48,115.6l2-.23.08.65-2.82.33-.56-4.87Zm4.59-.5.92-.09L54,115.66l-.82.07-.42-1.19-1.42.12-.2,1.25-.77.07,1-5Zm1.21,2.93-1.11.1.35-2.28.76,2.18Zm1.83-3.21,1.47-.09a1.64,1.64,0,0,1,1.2.29,1.35,1.35,0,0,1,.45,1,1.34,1.34,0,0,1-.67,1.33l1.07,2.15-.88.06-.89-2-.76,0,.13,2-.81.06-.31-4.9Zm.85.58.63,0a.69.69,0,0,1,.85.71,1,1,0,0,1-.16.62.74.74,0,0,1-.6.26l-.62,0-.1-1.59Zm3.33-.84.95,0,1.74,3.47-.13-3.53.68,0,.18,4.9-.76,0-2-3.85.15,3.92-.68,0-.18-4.89Zm5.85-.19,1.48,0a3.57,3.57,0,0,1,.85.08.91.91,0,0,1,.5.4,1.35,1.35,0,0,1,.21.75,1,1,0,0,1-.72,1.09,1.15,1.15,0,0,1,.89,1.22,1.38,1.38,0,0,1-.33,1,1.73,1.73,0,0,1-1.32.42l-1.5,0-.06-4.91Zm.81,2v-1.41h.59a1,1,0,0,1,.61.15.62.62,0,0,1,.21.53.73.73,0,0,1-.17.52.9.9,0,0,1-.71.21Zm0,2.22,0-1.6h.59a1,1,0,0,1,.78.23.92.92,0,0,1,.19.55c0,.53-.29.8-.88.81ZM68,110.23h.88l.88,2.06.94-2h.77l-1.4,2.81,0,2.08h-.8l0-2.08L68,110.23Zm5.39.11,1.49.06a3.62,3.62,0,0,1,.84.12.92.92,0,0,1,.48.42,1.28,1.28,0,0,1,.17.77,1,1,0,0,1-.77,1,1.16,1.16,0,0,1,.83,1.26A1.39,1.39,0,0,1,76,115a1.73,1.73,0,0,1-1.34.35l-1.5-.06.18-4.9Zm.72,2.07,0-1.41.6,0a.89.89,0,0,1,.6.19.64.64,0,0,1,.18.54.78.78,0,0,1-.19.51,1,1,0,0,1-.72.17l-.52,0ZM74,114.63l.06-1.6.58,0a.94.94,0,0,1,.77.27.86.86,0,0,1,.17.56c0,.53-.33.78-.93.76l-.65,0Zm3.66-4.07.79,0-.19,3a4.54,4.54,0,0,0,0,.75.64.64,0,0,0,.22.4A.89.89,0,0,0,79,115a.88.88,0,0,0,.49-.09.57.57,0,0,0,.26-.31,3.15,3.15,0,0,0,.13-.84l.19-3,.73,0-.19,3a4.79,4.79,0,0,1-.17,1.09,1.1,1.1,0,0,1-.52.61,1.71,1.71,0,0,1-1,.2,1.92,1.92,0,0,1-.83-.22,1,1,0,0,1-.5-.55,3.11,3.11,0,0,1-.11-1.28l.2-3Zm4.35.33.81.07-.43,4.88-.81-.07.43-4.88Zm2.08.18.8.1-.48,4.19,1.72.19-.08.68-2.52-.29.56-4.87Zm3.31.37,1.09.15a2.58,2.58,0,0,1,1.23.46,1.79,1.79,0,0,1,.6.94,3.1,3.1,0,0,1,.07,1.26,3.48,3.48,0,0,1-.4,1.24,2,2,0,0,1-.79.8,2.08,2.08,0,0,1-1.33.16l-1.15-.16.68-4.85Zm.71.75.34,0c.89.12,1.25.78,1.08,2a2.31,2.31,0,0,1-.5,1.26,1.13,1.13,0,0,1-1.09.34l-.33,0,.5-3.57Zm3.71-.13.8.13L91.82,117l-.8-.13.81-4.83Zm1.91.32.94.15,1,3.76.59-3.49.67.11-.82,4.84-.75-.13-1.13-4.17-.65,3.87-.66-.11.81-4.83Zm5.66,3.48,1.6.36-.56,2.49-.43-.09,0-.64a1.23,1.23,0,0,1-1.29.4,1.47,1.47,0,0,1-1.11-.93,3.18,3.18,0,0,1-.06-1.86,3.51,3.51,0,0,1,.87-1.76,1.59,1.59,0,0,1,1.53-.38,1.53,1.53,0,0,1,1.21,1.81h-.76a1.59,1.59,0,0,0-.15-.88.8.8,0,0,0-.47-.29c-.64-.15-1.1.39-1.38,1.61s-.08,1.91.58,2.05.91-.23,1.1-1.07l-.85-.2Z"/></g></g></svg>