<svg width="101" height="101" viewBox="0 0 101 101" fill="none" xmlns="http://www.w3.org/2000/svg">
<path fill-rule="evenodd" clip-rule="evenodd" d="M50.5 101C78.3904 101 101 78.3904 101 50.5C101 22.6096 78.3904 0 50.5 0C22.6096 0 0 22.6096 0 50.5C0 78.3904 22.6096 101 50.5 101Z" fill="#FFC107"/>
<rect x="18" y="45" width="11" height="11" fill="#2974FF"/>
<rect x="18" y="56" width="11" height="11" fill="#2974FF"/>
<rect x="29" y="56" width="11" height="11" fill="#2974FF"/>
<rect x="29" y="66" width="11" height="11" fill="#2974FF"/>
<rect x="40" y="66" width="11" height="11" fill="#2974FF"/>
<rect x="50" y="66" width="11" height="11" fill="#2974FF"/>
<rect x="61" y="77" width="11" height="11" fill="#2974FF"/>
<rect x="29" y="77" width="11" height="11" fill="#2974FF"/>
<rect x="40" y="88" width="11" height="11" fill="#2974FF"/>
<rect x="18" y="34" width="11" height="11" fill="#2974FF"/>
<rect x="50" y="13" width="11" height="11" fill="#2974FF"/>
<rect x="40" y="34" width="11" height="11" fill="#2974FF"/>
<rect x="29" y="24" width="11" height="11" fill="#2974FF"/>
<rect x="50" y="24" width="11" height="11" fill="#2974FF"/>
<rect x="72" y="34" width="11" height="11" fill="#2974FF"/>
<rect x="61" y="45" width="11" height="11" fill="#2974FF"/>
<rect x="72" y="24" width="11" height="11" fill="#2974FF"/>
<rect x="61" y="13" width="11" height="11" fill="#2974FF"/>
<rect x="72" y="45" width="11" height="11" fill="#2974FF"/>
<rect x="72" y="56" width="11" height="11" fill="#2974FF"/>
<rect x="8" y="45" width="11" height="11" fill="#2974FF"/>
</svg>
