<svg width="94" height="111" viewBox="0 0 94 111" fill="none" xmlns="http://www.w3.org/2000/svg">
<path fill-rule="evenodd" clip-rule="evenodd" d="M2 10.4463C2 10.4463 26.0836 3 47.2683 3C68.4529 3 92.5365 10.4463 92.5365 10.4463V49.8055C92.5365 53.0559 92.3515 56.2998 91.6768 59.4794C90.2 66.4388 86.5496 79.4828 78.7107 88.4132C67.5609 101.116 47.2683 109 47.2683 109C47.2683 109 26.9756 101.554 15.8258 88.4132C7.63003 78.7542 4.01278 65.0719 2.67135 58.4999C2.15416 55.966 2 53.3888 2 50.8028V10.4463Z" fill="#446ECC" style="mix-blend-mode:darken"/>
<path fill-rule="evenodd" clip-rule="evenodd" d="M2 10.4463C2 10.4463 26.0836 3 47.2683 3C68.4529 3 92.5365 10.4463 92.5365 10.4463V49.8055C92.5365 53.0559 92.3515 56.2998 91.6768 59.4794C90.2 66.4388 86.5496 79.4828 78.7107 88.4132C67.5609 101.116 47.2683 109 47.2683 109C47.2683 109 26.9756 101.554 15.8258 88.4132C7.63003 78.7542 4.01278 65.0719 2.67135 58.4999C2.15416 55.966 2 53.3888 2 50.8028V10.4463Z" stroke="white" stroke-width="2"/>
<path fill-rule="evenodd" clip-rule="evenodd" d="M2 10.4463C2 10.4463 26.0836 3 47.2683 3C68.4529 3 92.5365 10.4463 92.5365 10.4463V49.8055C92.5365 53.0559 92.3515 56.2998 91.6768 59.4794C90.2 66.4388 86.5496 79.4828 78.7107 88.4132C67.5609 101.116 47.2683 109 47.2683 109C47.2683 109 26.9756 101.554 15.8258 88.4132C7.63003 78.7542 4.01278 65.0719 2.67135 58.4999C2.15416 55.966 2 53.3888 2 50.8028V10.4463Z" style="mix-blend-mode:screen"/>
<path fill-rule="evenodd" clip-rule="evenodd" d="M47.5 95C68.2107 95 85 78.2107 85 57.5C85 36.7893 68.2107 20 47.5 20C26.7893 20 10 36.7893 10 57.5C10 78.2107 26.7893 95 47.5 95Z" stroke="white" stroke-dasharray="6 2"/>
<path fill-rule="evenodd" clip-rule="evenodd" d="M20.4118 80.4118C27.2353 94 45.4314 94 45.4314 94L45.4338 93.7604C46.1397 93.9489 46.5686 94 46.5686 94C46.5686 94 64.7647 94 71.5882 80.4118C76.242 71.1443 74.5479 57.6631 72.9999 50.0267C72.9705 49.8818 72.9411 49.737 72.9117 49.5921C72.144 45.8103 71.3741 42.0176 71.3278 38.1599C71.3005 35.8791 71.3497 33.2007 71.5882 30.5882C72.1895 24.0034 73.8628 19.2647 73.8628 19.2647L71.5882 17C71.5882 17 69.9881 19.2647 61.4587 23.7941C58.7386 25.2386 58.7386 25.2386 54.0666 26.0588C49.3946 26.879 47.2431 28.3235 47.2431 28.3235C47.2431 28.3235 46.7906 28.3121 46.1056 28.3412L46.1058 28.3235C46.1058 28.3235 43.2798 26.879 38.6078 26.0588C33.9359 25.2386 33.9359 25.2386 31.2157 23.7941C22.6863 19.2647 20.4118 17 20.4118 17L18.1373 19.2647C18.1373 19.2647 19.8106 24.0034 20.4118 30.5882C20.6503 33.2007 20.6996 35.8791 20.6722 38.1599C20.6259 42.0176 19.856 45.8103 19.0883 49.5921C19.0589 49.737 19.0295 49.8818 19.0001 50.0267C17.4522 57.6631 15.758 71.1443 20.4118 80.4118Z" fill="#EDF9FC" fill-opacity="0.5"/>
<path d="M45.4314 94V95H46.4212L46.4313 94.0103L45.4314 94ZM20.4118 80.4118L19.5181 80.8605L19.5181 80.8605L20.4118 80.4118ZM45.4338 93.7604L45.6919 92.7942L44.4471 92.4617L44.4339 93.7501L45.4338 93.7604ZM46.5686 94L46.4504 94.993L46.5093 95H46.5686V94ZM71.5882 80.4118L72.4819 80.8605L72.4819 80.8605L71.5882 80.4118ZM72.9999 50.0267L73.98 49.828L73.98 49.828L72.9999 50.0267ZM72.9117 49.5921L73.8917 49.3932L73.8917 49.3932L72.9117 49.5921ZM71.3278 38.1599L72.3278 38.1479L72.3278 38.1478L71.3278 38.1599ZM71.5882 30.5882L72.5841 30.6792L72.5841 30.6792L71.5882 30.5882ZM73.8628 19.2647L74.8057 19.5977L75.0161 19.0019L74.5683 18.5561L73.8628 19.2647ZM71.5882 17L72.2938 16.2914L71.4548 15.4559L70.7715 16.423L71.5882 17ZM61.4587 23.7941L61.9277 24.6773L61.9277 24.6773L61.4587 23.7941ZM54.0666 26.0588L53.8937 25.0739L53.8937 25.0739L54.0666 26.0588ZM47.2431 28.3235L47.2179 29.3232L47.5361 29.3312L47.8005 29.1538L47.2431 28.3235ZM46.1056 28.3412L45.1057 28.3309L45.0949 29.385L46.148 29.3403L46.1056 28.3412ZM46.1058 28.3235L47.1057 28.3338L47.1121 27.7148L46.5609 27.4331L46.1058 28.3235ZM31.2157 23.7941L30.7467 24.6773L30.7467 24.6773L31.2157 23.7941ZM20.4118 17L21.1173 16.2914L20.4118 15.5888L19.7062 16.2914L20.4118 17ZM18.1373 19.2647L17.4317 18.5561L16.9839 19.0019L17.1943 19.5977L18.1373 19.2647ZM20.4118 30.5882L21.4076 30.4973L21.4076 30.4973L20.4118 30.5882ZM20.6722 38.1599L19.6723 38.1479L20.6722 38.1599ZM19.0883 49.5921L18.1083 49.3932L18.1083 49.3932L19.0883 49.5921ZM19.0001 50.0267L18.0201 49.828L18.0201 49.828L19.0001 50.0267ZM45.4314 94C45.4314 93 45.4317 93 45.4319 93C45.4319 93 45.432 93 45.432 93C45.4319 93 45.4316 93 45.431 93C45.4298 93 45.4275 93 45.4241 93C45.4173 92.9999 45.4062 92.9998 45.3909 92.9997C45.3604 92.9993 45.3131 92.9985 45.2499 92.997C45.1236 92.9939 44.9339 92.9876 44.6881 92.9748C44.1962 92.9493 43.4804 92.8978 42.598 92.7945C40.8309 92.5875 38.4072 92.1735 35.7803 91.3475C30.5107 89.6906 24.5472 86.4185 21.3054 79.963L19.5181 80.8605C23.0999 87.9932 29.6462 91.5153 35.1804 93.2554C37.9555 94.128 40.5073 94.5633 42.3653 94.7809C43.2953 94.8898 44.0544 94.9446 44.5843 94.9721C44.8493 94.9859 45.0572 94.9929 45.2008 94.9964C45.2726 94.9981 45.3283 94.999 45.367 94.9995C45.3864 94.9997 45.4015 94.9999 45.4123 94.9999C45.4176 95 45.4219 95 45.4251 95C45.4267 95 45.428 95 45.4291 95C45.4296 95 45.4302 95 45.4304 95C45.4309 95 45.4314 95 45.4314 94ZM44.4339 93.7501L44.4314 93.9897L46.4313 94.0103L46.4338 93.7706L44.4339 93.7501ZM45.1757 94.7265C45.5556 94.828 45.8646 94.8934 46.0831 94.934C46.1925 94.9544 46.2794 94.9685 46.3413 94.9779C46.3723 94.9826 46.3971 94.986 46.4154 94.9885C46.4245 94.9897 46.432 94.9907 46.4379 94.9914C46.4408 94.9918 46.4433 94.9921 46.4454 94.9924C46.4465 94.9925 46.4474 94.9926 46.4482 94.9927C46.4486 94.9928 46.449 94.9928 46.4494 94.9929C46.4496 94.9929 46.4498 94.9929 46.4499 94.9929C46.45 94.9929 46.4501 94.993 46.4502 94.993C46.4503 94.993 46.4504 94.993 46.5686 94C46.6869 93.007 46.687 93.007 46.6871 93.007C46.6871 93.007 46.6872 93.0071 46.6873 93.0071C46.6874 93.0071 46.6876 93.0071 46.6877 93.0071C46.688 93.0071 46.6882 93.0072 46.6884 93.0072C46.6888 93.0072 46.6891 93.0073 46.6893 93.0073C46.6898 93.0074 46.6898 93.0074 46.6894 93.0073C46.6886 93.0072 46.6862 93.0069 46.6822 93.0064C46.6743 93.0053 46.6601 93.0033 46.6398 93.0003C46.5993 92.9942 46.5348 92.9838 46.4487 92.9677C46.2763 92.9357 46.0179 92.8813 45.6919 92.7942L45.1757 94.7265ZM46.5686 94C46.5686 95 46.5691 95 46.5696 95C46.5698 95 46.5704 95 46.5709 95C46.572 95 46.5733 95 46.5749 95C46.5781 95 46.5824 95 46.5878 94.9999C46.5985 94.9999 46.6136 94.9997 46.633 94.9995C46.6717 94.999 46.7274 94.9981 46.7992 94.9964C46.9428 94.9929 47.1507 94.9859 47.4157 94.9721C47.9456 94.9446 48.7047 94.8898 49.6347 94.7809C51.4927 94.5633 54.0445 94.128 56.8196 93.2554C62.3538 91.5153 68.9001 87.9932 72.4819 80.8605L70.6946 79.963C67.4528 86.4185 61.4894 89.6906 56.2197 91.3475C53.5928 92.1735 51.1691 92.5875 49.402 92.7945C48.5196 92.8978 47.8038 92.9493 47.3119 92.9748C47.0661 92.9876 46.8764 92.9939 46.7501 92.997C46.6869 92.9985 46.6396 92.9993 46.6091 92.9997C46.5938 92.9998 46.5827 92.9999 46.5759 93C46.5725 93 46.5702 93 46.569 93C46.5684 93 46.5681 93 46.568 93C46.568 93 46.5681 93 46.5681 93C46.5683 93 46.5686 93 46.5686 94ZM72.4819 80.8605C74.91 76.0252 75.6555 70.1572 75.6197 64.6012C75.5838 59.0308 74.7614 53.6828 73.98 49.828L72.0198 50.2254C72.7864 54.007 73.585 59.2178 73.6197 64.614C73.6546 70.0246 72.9203 75.5308 70.6946 79.963L72.4819 80.8605ZM73.98 49.828C73.9506 49.683 73.9211 49.538 73.8917 49.3932L71.9317 49.7911C71.9611 49.9359 71.9905 50.0807 72.0198 50.2254L73.98 49.828ZM73.8917 49.3932C73.1208 45.5954 72.3727 41.8954 72.3278 38.1479L70.3279 38.1719C70.3755 42.1398 71.1672 46.0252 71.9317 49.7911L73.8917 49.3932ZM72.3278 38.1478C72.3006 35.8879 72.3497 33.2462 72.5841 30.6792L70.5924 30.4973C70.3497 33.1553 70.3003 35.8703 70.3279 38.1719L72.3278 38.1478ZM72.5841 30.6792C72.8792 27.447 73.4377 24.6665 73.9221 22.6958C74.1641 21.7111 74.3871 20.9305 74.5487 20.3988C74.6295 20.133 74.6948 19.9295 74.7395 19.7941C74.7618 19.7264 74.7789 19.6757 74.7901 19.6427C74.7958 19.6262 74.7999 19.6142 74.8026 19.6066C74.8039 19.6029 74.8048 19.6002 74.8053 19.5987C74.8056 19.598 74.8057 19.5975 74.8058 19.5973C74.8058 19.5973 74.8058 19.5972 74.8058 19.5973C74.8058 19.5973 74.8058 19.5974 74.8058 19.5974C74.8057 19.5975 74.8057 19.5977 73.8628 19.2647C72.9198 18.9317 72.9198 18.9319 72.9197 18.9321C72.9197 18.9322 72.9196 18.9324 72.9195 18.9326C72.9194 18.9329 72.9193 18.9333 72.9191 18.9338C72.9187 18.9348 72.9183 18.936 72.9178 18.9376C72.9167 18.9407 72.9152 18.945 72.9133 18.9504C72.9096 18.9612 72.9043 18.9765 72.8975 18.9963C72.8839 19.036 72.8645 19.0935 72.8399 19.1683C72.7907 19.3177 72.7206 19.5359 72.6351 19.8173C72.4641 20.3798 72.2313 21.1954 71.9799 22.2185C71.4773 24.2633 70.8985 27.1446 70.5924 30.4973L72.5841 30.6792ZM74.5683 18.5561L72.2938 16.2914L70.8827 17.7086L73.1572 19.9733L74.5683 18.5561ZM71.5882 17C70.7715 16.423 70.772 16.4223 70.7724 16.4217C70.7725 16.4215 70.773 16.4209 70.7732 16.4206C70.7738 16.4198 70.7743 16.4191 70.7748 16.4184C70.7757 16.417 70.7766 16.4158 70.7774 16.4147C70.779 16.4126 70.7801 16.411 70.7808 16.4101C70.7822 16.4082 70.7819 16.4086 70.7797 16.4115C70.7753 16.4172 70.7633 16.4323 70.7422 16.4569C70.7002 16.5062 70.6225 16.593 70.4981 16.7173C70.2491 16.9661 69.8153 17.363 69.1108 17.9071C67.7004 18.9963 65.2186 20.6652 60.9897 22.9109L61.9277 24.6773C66.2283 22.3936 68.8113 20.6654 70.3333 19.49C71.0949 18.9017 71.5943 18.4493 71.9118 18.132C72.0707 17.9732 72.1846 17.8477 72.2634 17.7554C72.3028 17.7092 72.3335 17.6713 72.3567 17.6416C72.3683 17.6268 72.378 17.6139 72.386 17.6032C72.39 17.5978 72.3935 17.5929 72.3967 17.5886C72.3983 17.5864 72.3997 17.5844 72.4011 17.5824C72.4018 17.5815 72.4025 17.5805 72.4031 17.5796C72.4034 17.5792 72.4039 17.5785 72.4041 17.5783C72.4045 17.5777 72.405 17.577 71.5882 17ZM60.9897 22.9109C59.6114 23.6429 59.0175 23.9545 58.2017 24.2045C57.352 24.4648 56.2606 24.6583 53.8937 25.0739L54.2395 27.0438C56.5445 26.6391 57.7892 26.4226 58.7875 26.1167C59.8197 25.8005 60.5859 25.3899 61.9277 24.6773L60.9897 22.9109ZM53.8937 25.0739C51.4843 25.4969 49.7084 26.0838 48.5209 26.5746C47.9273 26.8199 47.4814 27.0409 47.1773 27.205C47.0253 27.287 46.9088 27.3548 46.8271 27.4042C46.7863 27.4289 46.7541 27.449 46.7305 27.464C46.7188 27.4715 46.7092 27.4778 46.7017 27.4827C46.6979 27.4851 46.6947 27.4872 46.6921 27.489C46.6907 27.4899 46.6895 27.4907 46.6885 27.4914C46.6879 27.4918 46.6874 27.4921 46.6869 27.4924C46.6867 27.4926 46.6864 27.4928 46.6863 27.4929C46.686 27.4931 46.6856 27.4933 47.2431 28.3235C47.8005 29.1538 47.8002 29.154 47.7999 29.1542C47.7998 29.1542 47.7995 29.1544 47.7994 29.1545C47.799 29.1547 47.7987 29.1549 47.7984 29.1551C47.7979 29.1555 47.7975 29.1558 47.7972 29.1559C47.7966 29.1563 47.7966 29.1563 47.7971 29.156C47.798 29.1554 47.801 29.1534 47.8062 29.1502C47.8164 29.1436 47.835 29.1319 47.8621 29.1155C47.9163 29.0828 48.0044 29.0313 48.1271 28.9651C48.3725 28.8327 48.7564 28.6413 49.2848 28.4229C50.341 27.9864 51.9769 27.441 54.2395 27.0438L53.8937 25.0739ZM47.2431 28.3235C47.2682 27.3238 47.2682 27.3238 47.2681 27.3238C47.2681 27.3238 47.268 27.3238 47.268 27.3238C47.2679 27.3238 47.2678 27.3238 47.2677 27.3238C47.2675 27.3238 47.2673 27.3238 47.2671 27.3238C47.2666 27.3238 47.266 27.3238 47.2653 27.3238C47.2639 27.3237 47.262 27.3237 47.2597 27.3236C47.2551 27.3235 47.2488 27.3234 47.2408 27.3233C47.2249 27.323 47.2022 27.3226 47.1732 27.3223C47.1153 27.3216 47.0321 27.3211 46.9273 27.3215C46.7177 27.3223 46.4204 27.3269 46.0632 27.3421L46.148 29.3403C46.4759 29.3264 46.7473 29.3222 46.9352 29.3215C47.029 29.3211 47.1018 29.3216 47.1501 29.3221C47.1742 29.3224 47.1923 29.3227 47.2037 29.3229C47.2094 29.323 47.2135 29.3231 47.2159 29.3232C47.2171 29.3232 47.2178 29.3232 47.2182 29.3232C47.2183 29.3232 47.2184 29.3232 47.2184 29.3232C47.2183 29.3232 47.2183 29.3232 47.2182 29.3232C47.2182 29.3232 47.2181 29.3232 47.2181 29.3232C47.218 29.3232 47.218 29.3232 47.218 29.3232C47.2179 29.3232 47.2179 29.3232 47.2431 28.3235ZM45.1058 28.3133L45.1057 28.3309L47.1056 28.3515L47.1057 28.3338L45.1058 28.3133ZM38.4349 27.0438C40.7068 27.4426 42.5258 27.9926 43.7707 28.4399C44.3929 28.6634 44.8709 28.861 45.1895 29.0008C45.3488 29.0706 45.4682 29.126 45.5457 29.1629C45.5844 29.1813 45.6127 29.1951 45.6303 29.2038C45.6391 29.2081 45.6452 29.2112 45.6486 29.2129C45.6503 29.2138 45.6513 29.2143 45.6517 29.2145C45.6518 29.2146 45.6518 29.2146 45.6517 29.2145C45.6516 29.2144 45.6515 29.2144 45.6513 29.2143C45.6512 29.2142 45.651 29.2141 45.651 29.2141C45.6508 29.214 45.6507 29.2139 46.1058 28.3235C46.5609 27.4331 46.5607 27.433 46.5605 27.4329C46.5604 27.4329 46.5602 27.4327 46.56 27.4327C46.5597 27.4325 46.5593 27.4323 46.5589 27.4321C46.558 27.4316 46.557 27.4311 46.5558 27.4305C46.5534 27.4293 46.5503 27.4277 46.5465 27.4258C46.5389 27.422 46.5286 27.4168 46.5156 27.4104C46.4895 27.3975 46.4525 27.3795 46.4048 27.3568C46.3095 27.3115 46.1716 27.2476 45.9929 27.1692C45.6357 27.0125 45.1152 26.7978 44.4469 26.5576C43.1108 26.0776 41.1809 25.4952 38.7808 25.0739L38.4349 27.0438ZM30.7467 24.6773C32.0885 25.3899 32.8547 25.8005 33.8869 26.1167C34.8852 26.4226 36.1299 26.6391 38.4349 27.0438L38.7808 25.0739C36.4138 24.6583 35.3225 24.4648 34.4728 24.2045C33.6569 23.9545 33.063 23.6429 31.6847 22.9109L30.7467 24.6773ZM20.4118 17C19.7062 17.7086 19.7065 17.7089 19.7068 17.7093C19.7069 17.7094 19.7073 17.7097 19.7075 17.7099C19.708 17.7104 19.7085 17.7109 19.709 17.7114C19.7101 17.7125 19.7113 17.7137 19.7127 17.7151C19.7154 17.7177 19.7187 17.721 19.7226 17.7247C19.7303 17.7322 19.7404 17.7419 19.7529 17.7537C19.7779 17.7773 19.8127 17.8095 19.8582 17.8504C19.9492 17.932 20.0832 18.0482 20.2678 18.199C20.6368 18.5006 21.209 18.941 22.0458 19.5206C23.7188 20.6794 26.4544 22.398 30.7467 24.6773L31.6847 22.9109C27.4476 20.6609 24.7812 18.9824 23.1846 17.8765C22.3866 17.3237 21.8571 16.9149 21.5331 16.6502C21.3712 16.5179 21.2608 16.4218 21.1941 16.3619C21.1608 16.332 21.1383 16.3112 21.1259 16.2994C21.1196 16.2935 21.1159 16.2899 21.1145 16.2886C21.1138 16.2879 21.1137 16.2878 21.1142 16.2883C21.1144 16.2885 21.1148 16.2889 21.1153 16.2894C21.1156 16.2896 21.1159 16.2899 21.1162 16.2903C21.1164 16.2904 21.1167 16.2907 21.1168 16.2908C21.1171 16.2911 21.1173 16.2914 20.4118 17ZM18.8428 19.9733L21.1173 17.7086L19.7062 16.2914L17.4317 18.5561L18.8428 19.9733ZM21.4076 30.4973C21.1015 27.1446 20.5227 24.2633 20.0202 22.2185C19.7687 21.1954 19.5359 20.3798 19.3649 19.8173C19.2794 19.5359 19.2093 19.3177 19.1601 19.1683C19.1355 19.0935 19.1161 19.036 19.1025 18.9963C19.0958 18.9765 19.0905 18.9612 19.0867 18.9504C19.0848 18.945 19.0833 18.9407 19.0823 18.9376C19.0817 18.936 19.0813 18.9348 19.0809 18.9338C19.0808 18.9333 19.0806 18.9329 19.0805 18.9326C19.0804 18.9324 19.0804 18.9322 19.0803 18.9321C19.0803 18.9319 19.0802 18.9317 18.1373 19.2647C17.1943 19.5977 17.1943 19.5975 17.1942 19.5974C17.1942 19.5974 17.1942 19.5973 17.1942 19.5973C17.1942 19.5972 17.1942 19.5973 17.1942 19.5973C17.1943 19.5975 17.1944 19.598 17.1947 19.5987C17.1952 19.6002 17.1961 19.6029 17.1974 19.6066C17.2001 19.6142 17.2042 19.6262 17.2099 19.6427C17.2211 19.6757 17.2382 19.7264 17.2606 19.7941C17.3052 19.9295 17.3705 20.133 17.4513 20.3988C17.6129 20.9305 17.8359 21.7111 18.078 22.6958C18.5623 24.6665 19.1208 27.447 19.4159 30.6792L21.4076 30.4973ZM21.6721 38.1719C21.6997 35.8703 21.6503 33.1553 21.4076 30.4973L19.4159 30.6792C19.6503 33.2462 19.6994 35.8879 19.6723 38.1479L21.6721 38.1719ZM20.0683 49.7911C20.8328 46.0252 21.6245 42.1398 21.6721 38.1719L19.6723 38.1479C19.6273 41.8954 18.8792 45.5954 18.1083 49.3932L20.0683 49.7911ZM19.9802 50.2254C20.0095 50.0807 20.0389 49.936 20.0683 49.7911L18.1083 49.3932C18.0789 49.538 18.0494 49.683 18.0201 49.828L19.9802 50.2254ZM21.3054 79.963C19.0797 75.5308 18.3454 70.0246 18.3803 64.614C18.415 59.2178 19.2136 54.007 19.9802 50.2254L18.0201 49.828C17.2386 53.6828 16.4162 59.0308 16.3803 64.6012C16.3445 70.1572 17.09 76.0252 19.5181 80.8605L21.3054 79.963Z" fill="white"/>
<path fill-rule="evenodd" clip-rule="evenodd" d="M46.6744 50.8755C44.9217 54.4185 41.3016 56.8509 37.1202 56.8509C31.2227 56.8509 26.4419 52.0124 26.4419 46.0439C26.4419 40.0753 31.2227 35.2368 37.1202 35.2368C41.3016 35.2368 44.9217 37.6692 46.6744 41.2122C48.4271 37.6692 52.0472 35.2368 56.2287 35.2368C62.1261 35.2368 66.907 40.0753 66.907 46.0439C66.907 52.0124 62.1261 56.8509 56.2287 56.8509C52.0472 56.8509 48.4271 54.4185 46.6744 50.8755Z" fill="#446ECC"/>
<path d="M46.6744 50.8755L47.5707 50.4321L46.6744 48.6202L45.7781 50.4321L46.6744 50.8755ZM46.6744 41.2122L45.7781 41.6556L46.6744 43.4675L47.5707 41.6556L46.6744 41.2122ZM37.1202 57.8509C41.7011 57.8509 45.6581 55.1852 47.5707 51.3189L45.7781 50.4321C44.1854 53.6517 40.9022 55.8509 37.1202 55.8509V57.8509ZM25.4419 46.0439C25.4419 52.5534 30.6592 57.8509 37.1202 57.8509V55.8509C31.7862 55.8509 27.4419 51.4715 27.4419 46.0439H25.4419ZM37.1202 34.2368C30.6592 34.2368 25.4419 39.5344 25.4419 46.0439H27.4419C27.4419 40.6163 31.7862 36.2368 37.1202 36.2368V34.2368ZM47.5707 40.7688C45.6581 36.9025 41.7011 34.2368 37.1202 34.2368V36.2368C40.9022 36.2368 44.1854 38.436 45.7781 41.6556L47.5707 40.7688ZM56.2287 34.2368C51.6478 34.2368 47.6907 36.9025 45.7781 40.7688L47.5707 41.6556C49.1635 38.436 52.4467 36.2368 56.2287 36.2368V34.2368ZM67.907 46.0439C67.907 39.5344 62.6897 34.2368 56.2287 34.2368V36.2368C61.5626 36.2368 65.907 40.6163 65.907 46.0439H67.907ZM56.2287 57.8509C62.6897 57.8509 67.907 52.5534 67.907 46.0439H65.907C65.907 51.4715 61.5626 55.8509 56.2287 55.8509V57.8509ZM45.7781 51.3189C47.6907 55.1852 51.6478 57.8509 56.2287 57.8509V55.8509C52.4467 55.8509 49.1635 53.6517 47.5707 50.4321L45.7781 51.3189Z" fill="white"/>
<path fill-rule="evenodd" clip-rule="evenodd" d="M56.4535 48.7456C58.1296 48.7456 59.4884 47.3848 59.4884 45.7061C59.4884 44.0275 58.1296 42.6667 56.4535 42.6667C54.7774 42.6667 53.4186 44.0275 53.4186 45.7061C53.4186 47.3848 54.7774 48.7456 56.4535 48.7456Z" fill="white"/>
<path fill-rule="evenodd" clip-rule="evenodd" d="M36.8954 48.7456C38.5715 48.7456 39.9302 47.3848 39.9302 45.7061C39.9302 44.0275 38.5715 42.6667 36.8954 42.6667C35.2192 42.6667 33.8605 44.0275 33.8605 45.7061C33.8605 47.3848 35.2192 48.7456 36.8954 48.7456Z" fill="white"/>
<path fill-rule="evenodd" clip-rule="evenodd" d="M44.6512 50.4211C44.6512 49.8688 45.0989 49.4211 45.6512 49.4211H47.6977C48.25 49.4211 48.6977 49.8688 48.6977 50.4211V54.3136L47.1071 57.0609C46.9146 57.3935 46.4343 57.3935 46.2417 57.0609L44.6512 54.3136L44.6512 50.4211Z" fill="white" stroke="white" stroke-width="2" stroke-linecap="round" stroke-linejoin="round"/>
<path d="M47.1362 0V111" stroke="white"/>
<path d="M0 55.5H94" stroke="white"/>
<path d="M82.081 20.197L12.2609 89.8896" stroke="white"/>
<path d="M11.9844 19.8609L82.4203 90.5705" stroke="white"/>
<path d="M84.4637 17.7055L94 8.17176" stroke="white" stroke-linejoin="round" stroke-dasharray="1 1 1"/>
<path d="M9.8768 17.7055L-1.14441e-05 8.17176" stroke="white" stroke-linejoin="round" stroke-dasharray="1 1 1"/>
<path fill-rule="evenodd" clip-rule="evenodd" d="M84.4638 17.7055L78.3333 20.7699H81.3986V23.8344L84.4638 17.7055Z" fill="white"/>
<path fill-rule="evenodd" clip-rule="evenodd" d="M9.8768 17.7055L16.0072 20.7699H12.942V23.8344L9.8768 17.7055Z" fill="white"/>
</svg>
