<svg width="308" height="361" viewBox="0 0 308 361" fill="none" xmlns="http://www.w3.org/2000/svg">
<path fill-rule="evenodd" clip-rule="evenodd" d="M6.53198 33.9739C6.53198 33.9739 85.188 9.75674 154.376 9.75674C223.564 9.75674 302.22 33.9739 302.22 33.9739V172.952C302.22 176.216 302.02 179.463 301.477 182.682C298.729 198.972 287.674 252.818 257.066 287.542C220.651 328.854 154.376 354.496 154.376 354.496C154.376 354.496 88.1012 330.278 51.6864 287.542C20.4604 250.895 9.58454 196.441 7.11911 181.667C6.69168 179.106 6.53198 176.55 6.53198 173.953V33.9739Z" fill="url(#paint0_linear)" style="mix-blend-mode:darken"/>
<path fill-rule="evenodd" clip-rule="evenodd" d="M6.53198 33.9739C6.53198 33.9739 85.188 9.75674 154.376 9.75674C223.564 9.75674 302.22 33.9739 302.22 33.9739V172.952C302.22 176.216 302.02 179.463 301.477 182.682C298.729 198.972 287.674 252.818 257.066 287.542C220.651 328.854 154.376 354.496 154.376 354.496C154.376 354.496 88.1012 330.278 51.6864 287.542C20.4604 250.895 9.58454 196.441 7.11911 181.667C6.69168 179.106 6.53198 176.55 6.53198 173.953V33.9739Z" stroke="white" stroke-width="2"/>
<path fill-rule="evenodd" clip-rule="evenodd" d="M6.53198 33.9739C6.53198 33.9739 85.188 9.75674 154.376 9.75674C223.564 9.75674 302.22 33.9739 302.22 33.9739V172.952C302.22 176.216 302.02 179.463 301.477 182.682C298.729 198.972 287.674 252.818 257.066 287.542C220.651 328.854 154.376 354.496 154.376 354.496C154.376 354.496 88.1012 330.278 51.6864 287.542C20.4604 250.895 9.58454 196.441 7.11911 181.667C6.69168 179.106 6.53198 176.55 6.53198 173.953V33.9739Z" style="mix-blend-mode:screen"/>
<path fill-rule="evenodd" clip-rule="evenodd" d="M155.133 308.964C222.773 308.964 277.606 254.361 277.606 187.004C277.606 119.648 222.773 65.045 155.133 65.045C87.4929 65.045 32.6597 119.648 32.6597 187.004C32.6597 254.361 87.4929 308.964 155.133 308.964Z" stroke="white" stroke-dasharray="6 2"/>
<path fill-rule="evenodd" clip-rule="evenodd" d="M66.6639 261.519C88.9492 305.712 148.377 305.712 148.377 305.712L148.385 304.932C150.69 305.546 152.091 305.712 152.091 305.712C152.091 305.712 211.519 305.712 233.804 261.519C252.329 224.784 240.056 167.691 235.386 149.469C234.388 145.573 233.623 141.657 233.403 137.641C232.957 129.451 232.459 114.147 233.804 99.4806C235.768 78.065 241.233 62.6537 241.233 62.6537L233.804 55.2883C233.804 55.2883 228.578 62.6537 200.722 77.3845C191.838 82.0824 191.838 82.0824 176.579 84.7499C161.321 87.4174 154.294 92.1153 154.294 92.1153C154.294 92.1153 152.816 92.0782 150.579 92.1727L150.579 92.1153C150.579 92.1153 141.35 87.4174 126.091 84.7499C110.833 82.0824 110.833 82.0824 101.949 77.3845C74.0923 62.6537 66.6639 55.2883 66.6639 55.2883L59.2354 62.6537C59.2354 62.6537 64.7003 78.065 66.6639 99.4806C68.0086 114.147 67.5115 129.451 67.0646 137.641C66.8455 141.657 66.0798 145.573 65.0815 149.469C60.4121 167.691 48.1389 224.784 66.6639 261.519Z" fill="#EDF9FC" fill-opacity="0.5"/>
<path d="M148.377 305.712V306.712H149.367L149.377 305.722L148.377 305.712ZM66.6639 261.519L67.5568 261.069L67.5568 261.069L66.6639 261.519ZM148.385 304.932L148.642 303.966L147.398 303.635L147.385 304.922L148.385 304.932ZM152.091 305.712L151.973 306.705L152.032 306.712H152.091V305.712ZM233.804 261.519L234.697 261.97L234.697 261.97L233.804 261.519ZM235.386 149.469L236.355 149.221L236.355 149.221L235.386 149.469ZM233.403 137.641L234.402 137.587L234.402 137.587L233.403 137.641ZM233.804 99.4806L234.8 99.572L234.8 99.572L233.804 99.4806ZM241.233 62.6537L242.175 62.9879L242.387 62.3901L241.937 61.9436L241.233 62.6537ZM233.804 55.2883L234.508 54.5782L233.671 53.7479L232.989 54.7096L233.804 55.2883ZM200.722 77.3845L201.189 78.2685L201.189 78.2685L200.722 77.3845ZM176.579 84.7499L176.751 85.7349L176.751 85.7349L176.579 84.7499ZM154.294 92.1153L154.269 93.1149L154.586 93.1229L154.85 92.9466L154.294 92.1153ZM150.579 92.1727L149.579 92.1624L149.568 93.2163L150.621 93.1718L150.579 92.1727ZM150.579 92.1153L151.579 92.1256L151.586 91.5054L151.033 91.2241L150.579 92.1153ZM126.091 84.7499L125.919 85.7349L125.919 85.7349L126.091 84.7499ZM101.949 77.3845L102.416 76.5005L102.416 76.5005L101.949 77.3845ZM66.6639 55.2883L67.368 54.5782L66.6639 53.8801L65.9598 54.5782L66.6639 55.2883ZM59.2354 62.6537L58.5313 61.9436L58.081 62.3901L58.2929 62.9879L59.2354 62.6537ZM66.6639 99.4806L67.6597 99.3893L67.6597 99.3893L66.6639 99.4806ZM67.0646 137.641L68.0631 137.696L68.0631 137.696L67.0646 137.641ZM65.0815 149.469L64.1128 149.221L64.1128 149.221L65.0815 149.469ZM148.377 305.712C148.377 304.712 148.377 304.712 148.377 304.712C148.377 304.712 148.376 304.712 148.376 304.712C148.374 304.712 148.372 304.712 148.369 304.712C148.363 304.712 148.353 304.712 148.34 304.712C148.313 304.711 148.272 304.711 148.218 304.71C148.109 304.709 147.945 304.707 147.728 304.701C147.296 304.691 146.656 304.669 145.831 304.627C144.182 304.541 141.795 304.37 138.859 304.028C132.985 303.343 124.924 301.972 116.176 299.233C98.6649 293.75 78.5287 282.827 67.5568 261.069L65.771 261.97C77.0845 284.404 97.8047 295.577 115.579 301.142C124.474 303.927 132.662 305.319 138.627 306.014C141.611 306.362 144.041 306.537 145.728 306.624C146.572 306.668 147.23 306.69 147.68 306.701C147.904 306.706 148.077 306.709 148.194 306.71C148.252 306.711 148.297 306.711 148.328 306.712C148.343 306.712 148.355 306.712 148.363 306.712C148.367 306.712 148.37 306.712 148.373 306.712C148.374 306.712 148.375 306.712 148.375 306.712C148.376 306.712 148.377 306.712 148.377 305.712ZM147.385 304.922L147.377 305.701L149.377 305.722L149.385 304.943L147.385 304.922ZM148.128 305.899C149.307 306.212 150.259 306.413 150.92 306.535C151.251 306.597 151.51 306.638 151.688 306.665C151.777 306.678 151.846 306.688 151.894 306.694C151.918 306.698 151.936 306.7 151.95 306.702C151.956 306.703 151.962 306.703 151.966 306.704C151.968 306.704 151.969 306.704 151.971 306.704C151.971 306.704 151.972 306.705 151.972 306.705C151.972 306.705 151.973 306.705 151.973 306.705C151.973 306.705 151.973 306.705 151.973 306.705C151.973 306.705 151.973 306.705 152.091 305.712C152.209 304.719 152.209 304.719 152.209 304.719C152.209 304.719 152.209 304.719 152.209 304.719C152.209 304.719 152.209 304.719 152.21 304.719C152.21 304.719 152.21 304.719 152.21 304.719C152.21 304.719 152.209 304.719 152.209 304.719C152.207 304.718 152.204 304.718 152.2 304.718C152.192 304.717 152.178 304.715 152.159 304.712C152.122 304.707 152.063 304.699 151.985 304.687C151.828 304.664 151.592 304.626 151.285 304.569C150.669 304.455 149.768 304.265 148.642 303.966L148.128 305.899ZM152.091 305.712C152.091 306.712 152.092 306.712 152.093 306.712C152.093 306.712 152.094 306.712 152.095 306.712C152.098 306.712 152.101 306.712 152.105 306.712C152.113 306.712 152.125 306.712 152.14 306.712C152.171 306.711 152.216 306.711 152.274 306.71C152.391 306.709 152.564 306.706 152.788 306.701C153.238 306.69 153.896 306.668 154.74 306.624C156.427 306.537 158.857 306.362 161.841 306.014C167.806 305.319 175.994 303.927 184.889 301.142C202.663 295.577 223.384 284.404 234.697 261.97L232.911 261.069C221.939 282.827 201.803 293.75 184.292 299.233C175.544 301.972 167.483 303.343 161.609 304.028C158.673 304.37 156.286 304.541 154.637 304.627C153.812 304.669 153.172 304.691 152.739 304.701C152.523 304.707 152.359 304.709 152.25 304.71C152.196 304.711 152.155 304.711 152.128 304.712C152.115 304.712 152.105 304.712 152.099 304.712C152.096 304.712 152.094 304.712 152.092 304.712C152.092 304.712 152.091 304.712 152.091 304.712C152.091 304.712 152.091 304.712 152.091 305.712ZM234.697 261.97C244.08 243.364 245.631 219.692 244.291 198.488C242.949 177.259 238.698 158.364 236.355 149.221L234.418 149.717C236.744 158.796 240.964 177.558 242.295 198.615C243.628 219.697 242.054 242.94 232.911 261.069L234.697 261.97ZM236.355 149.221C235.366 145.36 234.616 141.513 234.402 137.587L232.405 137.696C232.629 141.801 233.411 145.787 234.418 149.717L236.355 149.221ZM234.402 137.587C233.956 129.415 233.462 114.166 234.8 99.572L232.808 99.3893C231.457 114.127 231.957 129.488 232.405 137.696L234.402 137.587ZM234.8 99.572C235.776 88.9247 237.623 79.7685 239.226 73.2759C240.027 70.0303 240.766 67.4521 241.304 65.6882C241.574 64.8063 241.792 64.128 241.943 63.6718C242.019 63.4437 242.077 63.2712 242.117 63.1564C242.136 63.099 242.151 63.0561 242.161 63.0279C242.166 63.0138 242.17 63.0034 242.172 62.9967C242.173 62.9934 242.174 62.991 242.174 62.9895C242.175 62.9888 242.175 62.9883 242.175 62.988C242.175 62.9879 242.175 62.9878 242.175 62.9878C242.175 62.9878 242.175 62.9879 241.233 62.6537C240.29 62.3195 240.29 62.3197 240.29 62.3199C240.29 62.3201 240.29 62.3204 240.29 62.3208C240.289 62.3214 240.289 62.3223 240.289 62.3235C240.288 62.3258 240.287 62.329 240.285 62.3331C240.282 62.3414 240.278 62.3534 240.273 62.3692C240.262 62.4006 240.246 62.4468 240.225 62.5076C240.183 62.629 240.122 62.8085 240.045 63.0436C239.889 63.5139 239.665 64.2069 239.392 65.1044C238.844 66.8994 238.094 69.5125 237.284 72.7967C235.663 79.3637 233.796 88.6209 232.808 99.3893L234.8 99.572ZM241.937 61.9436L234.508 54.5782L233.1 55.9984L240.528 63.3638L241.937 61.9436ZM233.804 55.2883C232.989 54.7096 232.989 54.709 232.989 54.7085C232.989 54.7083 232.99 54.7078 232.99 54.7075C232.991 54.7069 232.991 54.7064 232.991 54.706C232.992 54.7053 232.992 54.705 232.992 54.7051C232.992 54.7055 232.99 54.7077 232.987 54.7117C232.981 54.7197 232.969 54.7352 232.951 54.7579C232.916 54.8035 232.855 54.8784 232.766 54.9827C232.587 55.1914 232.292 55.5173 231.847 55.9605C230.956 56.847 229.465 58.2003 227.099 60.0196C222.367 63.6594 214.147 69.154 200.254 76.5005L201.189 78.2685C215.153 70.8842 223.474 65.3306 228.319 61.605C230.742 59.7417 232.298 58.333 233.258 57.3781C233.738 56.9006 234.069 56.536 234.284 56.2844C234.392 56.1585 234.471 56.0608 234.526 55.9913C234.553 55.9565 234.574 55.9288 234.59 55.908C234.597 55.8977 234.604 55.8891 234.609 55.8822C234.611 55.8788 234.613 55.8758 234.615 55.8733C234.616 55.872 234.617 55.8708 234.618 55.8698C234.618 55.8692 234.619 55.8685 234.619 55.8683C234.619 55.8676 234.62 55.8669 233.804 55.2883ZM200.254 76.5005C195.794 78.859 193.659 79.9843 190.749 80.8721C187.805 81.7702 184.067 82.4257 176.407 83.7648L176.751 85.7349C184.35 84.4066 188.241 83.7283 191.333 82.785C194.458 81.8315 196.765 80.6078 201.189 78.2685L200.254 76.5005ZM176.407 83.7648C168.705 85.1113 163.063 86.9733 159.334 88.5081C157.469 89.2755 156.083 89.9608 155.157 90.4587C154.694 90.7076 154.345 90.9096 154.11 91.0515C153.992 91.1225 153.902 91.1785 153.84 91.2178C153.809 91.2374 153.785 91.2529 153.768 91.264C153.76 91.2695 153.753 91.274 153.748 91.2773C153.745 91.279 153.743 91.2804 153.742 91.2815C153.741 91.282 153.74 91.2825 153.739 91.2829C153.739 91.2831 153.739 91.2834 153.739 91.2835C153.738 91.2837 153.738 91.2839 154.294 92.1153C154.85 92.9466 154.849 92.9468 154.849 92.9469C154.849 92.947 154.849 92.9471 154.849 92.9472C154.848 92.9473 154.848 92.9473 154.848 92.9473C154.848 92.9473 154.849 92.947 154.85 92.9464C154.852 92.9452 154.855 92.9429 154.86 92.9394C154.871 92.9326 154.888 92.9214 154.913 92.9059C154.961 92.8751 155.037 92.8275 155.141 92.7648C155.35 92.6394 155.669 92.4536 156.103 92.2204C156.971 91.754 158.296 91.0982 160.095 90.3576C163.694 88.8767 169.195 87.0559 176.751 85.7349L176.407 83.7648ZM154.294 92.1153C154.319 91.1156 154.319 91.1156 154.319 91.1156C154.319 91.1156 154.319 91.1156 154.319 91.1156C154.318 91.1156 154.318 91.1156 154.318 91.1156C154.318 91.1155 154.317 91.1155 154.317 91.1155C154.316 91.1155 154.315 91.1155 154.313 91.1154C154.309 91.1153 154.305 91.1152 154.298 91.1151C154.286 91.1148 154.268 91.1145 154.244 91.114C154.197 91.1132 154.129 91.112 154.039 91.111C153.861 91.109 153.601 91.1073 153.271 91.1086C152.611 91.1112 151.67 91.1258 150.537 91.1736L150.621 93.1718C151.725 93.1252 152.641 93.1111 153.279 93.1085C153.598 93.1073 153.848 93.1089 154.016 93.1109C154.101 93.1119 154.165 93.1129 154.207 93.1137C154.229 93.1141 154.245 93.1144 154.255 93.1146C154.26 93.1147 154.264 93.1148 154.266 93.1149C154.267 93.1149 154.268 93.1149 154.268 93.1149C154.269 93.1149 154.269 93.1149 154.269 93.1149C154.269 93.1149 154.269 93.1149 154.269 93.1149C154.269 93.1149 154.269 93.1149 154.269 93.1149C154.269 93.1149 154.269 93.1149 154.294 92.1153ZM149.58 92.1049L149.579 92.1624L151.579 92.1831L151.579 92.1256L149.58 92.1049ZM125.919 85.7349C133.485 87.0575 139.551 88.8828 143.721 90.3744C145.805 91.1202 147.414 91.7822 148.499 92.2559C149.041 92.4927 149.452 92.6824 149.725 92.8119C149.862 92.8766 149.964 92.9263 150.031 92.9593C150.064 92.9758 150.089 92.9881 150.105 92.996C150.113 93 150.119 93.0028 150.122 93.0046C150.124 93.0055 150.125 93.0061 150.126 93.0064C150.126 93.0065 150.126 93.0066 150.126 93.0066C150.126 93.0066 150.126 93.0066 150.126 93.0066C150.126 93.0065 150.126 93.0064 150.579 92.1153C151.033 91.2241 151.033 91.2239 151.033 91.2238C151.032 91.2237 151.032 91.2236 151.032 91.2235C151.031 91.2232 151.031 91.2228 151.03 91.2224C151.028 91.2216 151.026 91.2205 151.023 91.2191C151.018 91.2163 151.01 91.2124 151 91.2074C150.98 91.1974 150.951 91.183 150.913 91.1644C150.838 91.1273 150.727 91.0734 150.581 91.0045C150.29 90.8666 149.861 90.6684 149.299 90.4231C148.176 89.9326 146.525 89.2535 144.394 88.4913C140.134 86.9671 133.957 85.1097 126.264 83.7648L125.919 85.7349ZM101.482 78.2685C105.905 80.6078 108.212 81.8315 111.338 82.785C114.43 83.7283 118.321 84.4066 125.919 85.7349L126.264 83.7648C118.604 82.4257 114.865 81.7702 111.922 80.8721C109.012 79.9843 106.877 78.859 102.416 76.5005L101.482 78.2685ZM66.6639 55.2883C65.9598 55.9984 65.9601 55.9987 65.9605 55.9991C65.9606 55.9992 65.961 55.9996 65.9613 55.9999C65.962 56.0006 65.9627 56.0013 65.9636 56.0021C65.9653 56.0038 65.9675 56.006 65.9701 56.0086C65.9754 56.0137 65.9825 56.0207 65.9916 56.0294C66.0097 56.0469 66.0354 56.0715 66.0692 56.1032C66.1366 56.1666 66.2362 56.2586 66.3711 56.3791C66.6408 56.6202 67.0516 56.9755 67.6288 57.445C68.783 58.384 70.6034 59.7808 73.2924 61.6355C78.6698 65.3445 87.5257 70.8885 101.482 78.2685L102.416 76.5005C88.5157 69.1496 79.729 63.6455 74.428 59.9892C71.7777 58.1612 70 56.7959 68.8909 55.8936C68.3364 55.4425 67.9492 55.1072 67.7039 54.8879C67.5812 54.7783 67.494 54.6976 67.4391 54.646C67.4116 54.6202 67.3922 54.6016 67.3805 54.5903C67.3746 54.5847 67.3707 54.5808 67.3686 54.5788C67.3676 54.5778 67.367 54.5772 67.3669 54.5771C67.3669 54.5771 67.3669 54.5771 67.3671 54.5773C67.3672 54.5774 67.3674 54.5776 67.3674 54.5777C67.3677 54.5779 67.368 54.5782 66.6639 55.2883ZM59.9395 63.3638L67.368 55.9984L65.9598 54.5782L58.5313 61.9436L59.9395 63.3638ZM67.6597 99.3893C66.6724 88.6209 64.805 79.3637 63.1842 72.7967C62.3736 69.5125 61.6242 66.8994 61.0765 65.1044C60.8026 64.2069 60.5791 63.5139 60.4235 63.0436C60.3457 62.8085 60.2848 62.629 60.2432 62.5076C60.2224 62.4468 60.2063 62.4006 60.1954 62.3692C60.1899 62.3534 60.1857 62.3414 60.1827 62.3331C60.1813 62.329 60.1802 62.3258 60.1793 62.3235C60.1789 62.3223 60.1786 62.3214 60.1784 62.3208C60.1783 62.3204 60.1782 62.3201 60.1781 62.3199C60.178 62.3197 60.1779 62.3195 59.2354 62.6537C58.2929 62.9879 58.2929 62.9878 58.2929 62.9878C58.2929 62.9878 58.2929 62.9879 58.293 62.988C58.2931 62.9883 58.2932 62.9888 58.2935 62.9895C58.294 62.991 58.2949 62.9934 58.2961 62.9967C58.2984 63.0034 58.3021 63.0138 58.307 63.0279C58.3168 63.0561 58.3317 63.099 58.3514 63.1564C58.3907 63.2712 58.4492 63.4437 58.5247 63.6718C58.6756 64.128 58.8944 64.8063 59.1635 65.6882C59.7018 67.4521 60.4414 70.0303 61.2425 73.2759C62.8449 79.7685 64.6918 88.9247 65.6681 99.572L67.6597 99.3893ZM68.0631 137.696C68.511 129.488 69.011 114.127 67.6597 99.3893L65.6681 99.572C67.0062 114.166 66.512 129.415 66.0661 137.587L68.0631 137.696ZM66.0502 149.717C67.0573 145.787 67.8391 141.801 68.0631 137.696L66.0661 137.587C65.8519 141.513 65.1022 145.36 64.1128 149.221L66.0502 149.717ZM67.5568 261.069C58.4144 242.94 56.8403 219.697 58.1728 198.615C59.5037 177.558 63.7237 158.796 66.0502 149.717L64.1128 149.221C61.7699 158.364 57.5186 177.259 56.1768 198.488C54.8366 219.692 56.3884 243.364 65.771 261.97L67.5568 261.069Z" fill="white"/>
<path d="M152.437 165.46L153.332 165.015L152.437 163.212L151.541 165.015L152.437 165.46ZM152.437 134.033L151.541 134.477L152.437 136.28L153.332 134.477L152.437 134.033ZM121.233 185.893C135.286 185.893 147.447 177.752 153.332 165.905L151.541 165.015C145.978 176.214 134.492 183.893 121.233 183.893V185.893ZM85.3579 149.746C85.3579 169.702 101.412 185.893 121.233 185.893V183.893C102.532 183.893 87.3579 168.613 87.3579 149.746H85.3579ZM121.233 113.599C101.412 113.599 85.3579 129.79 85.3579 149.746H87.3579C87.3579 130.88 102.532 115.599 121.233 115.599V113.599ZM153.332 133.588C147.447 121.741 135.286 113.599 121.233 113.599V115.599C134.492 115.599 145.978 123.279 151.541 134.477L153.332 133.588ZM183.64 113.599C169.587 113.599 157.426 121.741 151.541 133.588L153.332 134.477C158.895 123.279 170.381 115.599 183.64 115.599V113.599ZM219.515 149.746C219.515 129.79 203.461 113.599 183.64 113.599V115.599C202.342 115.599 217.515 130.88 217.515 149.746H219.515ZM183.64 185.893C203.461 185.893 219.515 169.702 219.515 149.746H217.515C217.515 168.613 202.342 183.893 183.64 183.893V185.893ZM151.541 165.905C157.426 177.752 169.587 185.893 183.64 185.893V183.893C170.381 183.893 158.895 176.214 153.332 165.015L151.541 165.905Z" fill="white"/>
<path fill-rule="evenodd" clip-rule="evenodd" d="M184.375 158.533C189.849 158.533 194.286 154.107 194.286 148.648C194.286 143.188 189.849 138.763 184.375 138.763C178.901 138.763 174.463 143.188 174.463 148.648C174.463 154.107 178.901 158.533 184.375 158.533Z" fill="white"/>
<path fill-rule="evenodd" clip-rule="evenodd" d="M120.499 158.533C125.973 158.533 130.411 154.107 130.411 148.648C130.411 143.188 125.973 138.763 120.499 138.763C115.025 138.763 110.587 143.188 110.587 148.648C110.587 154.107 115.025 158.533 120.499 158.533Z" fill="white"/>
<path fill-rule="evenodd" clip-rule="evenodd" d="M145.829 161.73C145.829 161.178 146.277 160.73 146.829 160.73H158.045C158.597 160.73 159.045 161.178 159.045 161.73V176.642L152.869 187.264C152.676 187.595 152.197 187.595 152.004 187.264L145.829 176.642L145.829 161.73Z" fill="white" stroke="white" stroke-width="2" stroke-linecap="round" stroke-linejoin="round"/>
<path d="M153.945 0V361" stroke="white"/>
<path d="M0 180.5H307" stroke="white"/>
<path d="M268.073 65.6857L40.0435 292.344" stroke="white"/>
<path d="M39.1407 64.5927L269.181 294.558" stroke="white"/>
<path d="M275.855 57.5828L307 26.5767" stroke="white" stroke-linejoin="round" stroke-dasharray="1 1 1"/>
<path d="M32.2573 57.5828L7.5125e-05 26.5767" stroke="white" stroke-linejoin="round" stroke-dasharray="1 1 1"/>
<path fill-rule="evenodd" clip-rule="evenodd" d="M275.855 57.5828L255.833 67.5491H265.844V77.5153L275.855 57.5828Z" fill="white"/>
<path fill-rule="evenodd" clip-rule="evenodd" d="M32.2573 57.5828L52.2791 67.5491H42.2682V77.5153L32.2573 57.5828Z" fill="white"/>
<defs>
<linearGradient id="paint0_linear" x1="61.8323" y1="9.75674" x2="61.8323" y2="225.548" gradientUnits="userSpaceOnUse">
<stop stop-color="#3DB5E1"/>
<stop offset="1" stop-color="#446ECC"/>
</linearGradient>
</defs>
</svg>
